<mxfile host="app.diagrams.net" modified="2022-04-20T14:07:10.988Z" agent="5.0 (Windows NT 10.0; Win64; x64) AppleWebKit/537.36 (KHTML, like Gecko) Chrome/100.0.4896.127 Safari/537.36" etag="-RmFFkctrnkOYSAfC63p" version="17.4.5" type="github">
  <diagram id="5W1s8z3WhUjLlQa7jMli" name="Page-1">
    <mxGraphModel dx="802" dy="861" grid="1" gridSize="10" guides="1" tooltips="1" connect="1" arrows="1" fold="1" page="1" pageScale="1" pageWidth="850" pageHeight="1100" math="1" shadow="0">
      <root>
        <mxCell id="0" />
        <mxCell id="1" parent="0" />
        <mxCell id="9v9rLqsLPomhNLWF-kmo-1" value="&lt;font style=&quot;font-size: 40px&quot; color=&quot;#ff0000&quot;&gt;BURSA DE&amp;nbsp;&lt;br&gt;INVERSE&lt;br&gt;&lt;/font&gt;" style="text;html=1;align=center;verticalAlign=middle;resizable=0;points=[];autosize=1;strokeColor=none;fillColor=none;" vertex="1" parent="1">
          <mxGeometry x="210" y="90" width="230" height="50" as="geometry" />
        </mxCell>
        <mxCell id="9v9rLqsLPomhNLWF-kmo-2" value="&lt;font style=&quot;font-size: 30px&quot;&gt;(BIJECTION&amp;nbsp; &amp;nbsp;EXCHANGE)&lt;/font&gt;" style="text;html=1;align=center;verticalAlign=middle;resizable=0;points=[];autosize=1;strokeColor=none;fillColor=none;fontSize=40;fontColor=#FF0000;" vertex="1" parent="1">
          <mxGeometry x="130" y="185" width="390" height="60" as="geometry" />
        </mxCell>
        <mxCell id="9v9rLqsLPomhNLWF-kmo-3" value="&amp;nbsp;$$\rightleftarrows&amp;nbsp; $$&amp;nbsp;&amp;nbsp;" style="text;html=1;align=center;verticalAlign=middle;resizable=0;points=[];autosize=1;strokeColor=none;fillColor=none;fontSize=30;fontColor=#FF0000;" vertex="1" parent="1">
          <mxGeometry x="241" y="264" width="320" height="40" as="geometry" />
        </mxCell>
        <mxCell id="9v9rLqsLPomhNLWF-kmo-4" value="(DR&amp;nbsp; &amp;nbsp; &amp;nbsp; ;&amp;nbsp; &amp;nbsp; &amp;nbsp; &amp;nbsp;DE;&amp;nbsp; &amp;nbsp; &amp;nbsp; &amp;nbsp;REV)" style="text;html=1;align=center;verticalAlign=middle;resizable=0;points=[];autosize=1;strokeColor=none;fillColor=none;fontSize=30;fontColor=#FF0000;" vertex="1" parent="1">
          <mxGeometry x="140" y="260" width="370" height="40" as="geometry" />
        </mxCell>
        <mxCell id="9v9rLqsLPomhNLWF-kmo-9" value="" style="endArrow=open;html=1;rounded=0;fontSize=30;fontColor=#FF0000;endFill=0;strokeColor=#FF0000;" edge="1" parent="1">
          <mxGeometry width="50" height="50" relative="1" as="geometry">
            <mxPoint x="290" y="280" as="sourcePoint" />
            <mxPoint x="310" y="270" as="targetPoint" />
          </mxGeometry>
        </mxCell>
        <mxCell id="9v9rLqsLPomhNLWF-kmo-10" value="" style="endArrow=open;html=1;rounded=0;fontSize=30;fontColor=#FF0000;endFill=0;strokeColor=#FF0000;" edge="1" parent="1">
          <mxGeometry width="50" height="50" relative="1" as="geometry">
            <mxPoint x="290" y="283" as="sourcePoint" />
            <mxPoint x="309" y="293" as="targetPoint" />
          </mxGeometry>
        </mxCell>
        <mxCell id="9v9rLqsLPomhNLWF-kmo-12" value="" style="endArrow=open;html=1;rounded=0;fontSize=30;fontColor=#FF0000;endFill=0;strokeColor=#FF0000;" edge="1" parent="1">
          <mxGeometry width="50" height="50" relative="1" as="geometry">
            <mxPoint x="220" y="272" as="sourcePoint" />
            <mxPoint x="239" y="282" as="targetPoint" />
          </mxGeometry>
        </mxCell>
        <mxCell id="9v9rLqsLPomhNLWF-kmo-13" value="" style="endArrow=open;html=1;rounded=0;fontSize=30;fontColor=#FF0000;endFill=0;strokeColor=#FF0000;" edge="1" parent="1">
          <mxGeometry width="50" height="50" relative="1" as="geometry">
            <mxPoint x="220" y="294" as="sourcePoint" />
            <mxPoint x="239" y="284" as="targetPoint" />
          </mxGeometry>
        </mxCell>
        <mxCell id="9v9rLqsLPomhNLWF-kmo-14" value="EVANESCENT AVAILABILITY&lt;br&gt;&amp;amp;FULFILLMENT" style="text;html=1;align=center;verticalAlign=middle;resizable=0;points=[];autosize=1;strokeColor=none;fillColor=none;fontSize=30;fontColor=#FF0000;" vertex="1" parent="1">
          <mxGeometry x="120" y="330" width="410" height="80" as="geometry" />
        </mxCell>
        <mxCell id="9v9rLqsLPomhNLWF-kmo-15" value="TRANS-MEMBRANATIC&lt;br&gt;EXCHANGE SPACES" style="text;html=1;align=center;verticalAlign=middle;resizable=0;points=[];autosize=1;strokeColor=none;fillColor=none;fontSize=30;fontColor=#FF0000;" vertex="1" parent="1">
          <mxGeometry x="150" y="430" width="350" height="80" as="geometry" />
        </mxCell>
        <mxCell id="9v9rLqsLPomhNLWF-kmo-16" value="" style="rounded=0;whiteSpace=wrap;html=1;fontSize=30;fontColor=#FF0000;fillColor=none;strokeColor=#FF0000;dashed=1;" vertex="1" parent="1">
          <mxGeometry x="112.5" y="330" width="425" height="80" as="geometry" />
        </mxCell>
      </root>
    </mxGraphModel>
  </diagram>
</mxfile>
